<svg version="1.1" id="logo" xmlns="http://www.w3.org/2000/svg" xmlns:xlink="http://www.w3.org/1999/xlink"	 viewBox="0 0 1024 1024" style="enable-background:new 0 0 1024 1024;" xml:space="preserve">
<style type="text/css">
	.st0{fill:#EFEFEF;
	fill-rule: evenodd}
</style>
<g>
	<path class="st0" d="M575.59,351.33c0,0-91.17,68.18,0,142.05C581.66,487.7,666.75,430.88,575.59,351.33z"/>
	<path class="st0" d="M364.45,394.62c0,0,35.37,107.36,143.04,60.99C503.99,447.97,477.84,350.7,364.45,394.62z"/>
	<path class="st0" d="M560,262.23c0,0-121.25,7.78-84.76,127.65C484,388.34,593.1,387.2,560,262.23z"/>
	<path class="st0" d="M858.91,210.72c0,0-188.21-77.7-270.21,117.78C603.41,332.73,766.1,410.91,858.91,210.72z"/>
	<path class="st0" d="M719.49,43.77c0,0-189.37-0.54-158.38,192.83C575,235.09,744.14,244.85,719.49,43.77z"/>
	<path class="st0" d="M432.6,15.04c0,0-105.44,161.45,73.91,249.34C512.94,251.62,614.9,112.9,432.6,15.04z"/>
	<path class="st0" d="M244.13,153.25c0,0-7.23,198.53,198.79,190.69C441.81,329.18,458.09,153.03,244.13,153.25z"/>
	<path class="st0" d="M56.81,277.75c0,0,78.1,209.72,295.59,126.57C344.83,389.33,286.12,199.67,56.81,277.75z"/>
	<path class="st0" d="M48.18,462.64c0,0,87.42,85.79,163.34-15.77C204.39,441.28,130.64,360.45,48.18,462.64z"/>
	<path class="st0" d="M213.73,478.88c0,0,84.36,101.01,184.71,8.18C391.34,480.26,321.47,386.38,213.73,478.88z"/>
	<path class="st0" d="M116.14,570.16c0,0,87.33,130.77,215.18,29.44C323.78,590.65,252.6,470.01,116.14,570.16z"/>
	<path class="st0" d="M500.75,639.05c0,0-170.76-97.4-261.75,85.35C252.48,730.21,399.29,825.21,500.75,639.05z"/>
	<path class="st0" d="M613.78,544.09c0,0-115.18-125.82-247.22-7.03C376.22,545.51,471.85,662.6,613.78,544.09z"/>
	<path class="st0" d="M525.51,612.18c0,0,10.84,189.35,201.03,142.17C724.21,740.59,723.74,570.68,525.51,612.18z"/>
	<path class="st0" d="M863.72,586.91c0,0-108.85-147.66-245.92-16.15C627.02,580.72,716.81,717.76,863.72,586.91z"/>
	<path class="st0" d="M975.82,502.03c0,0-81.45-103.64-173.38-3.01C809.26,505.95,876.95,602.54,975.82,502.03z"/>
	<path class="st0" d="M861.39,404.12c0,0-144.95-111.15-238.82,53.01C634.15,464.12,757.97,570.4,861.39,404.12z"/>
	<polygon class="st0" points="514.11,661.73 437.03,1008.96 591.18,1008.96 	"/>
</g>
</svg>
