<?xml version="1.0" encoding="utf-8"?>
<!-- Generator: Adobe Illustrator 25.0.0, SVG Export Plug-In . SVG Version: 6.00 Build 0)  -->
<svg version="1.1" id="Слой_1" opacity="0.65" xmlns="http://www.w3.org/2000/svg" xmlns:xlink="http://www.w3.org/1999/xlink"
	 x="0px" y="0px" viewBox="0 0 1024 1024" style="enable-background:new 0 0 1024 1024;" xml:space="preserve">
<style type="text/css">
	.st0{fill:#EFEFEF;}
	.st1{fill:none;stroke:#EFEFEF;stroke-width:5;stroke-miterlimit:10;}
	.st2{fill:none;stroke:#EFEFEF;stroke-width:3;stroke-miterlimit:10;}
	.st3{fill:none;stroke:#EFEFEF;stroke-width:5;stroke-linecap:round;stroke-miterlimit:10;}
</style>
<circle class="st0" cx="505" cy="371.89" r="17.14"/>
<circle class="st1" cx="505" cy="371.89" r="38.44"/>
<path class="st1" d="M489.87,323.12L489.87,323.12c-7.85-7.85-7.85-20.58,0-28.43l14.27-14.27c0.48-0.48,1.25-0.48,1.73,0
	l14.27,14.27c7.85,7.85,7.85,20.58,0,28.43l0,0C511.78,331.47,498.22,331.47,489.87,323.12z"/>
<path class="st1" d="M492.96,291.59c0,0,12.36,12.96,24.07,0"/>
<line class="st1" x1="505" y1="329.38" x2="505" y2="297.35"/>
<path class="st1" d="M462.05,344.25L462.05,344.25c-11.06-0.97-19.24-10.72-18.27-21.78l1.76-20.1c0.06-0.67,0.65-1.17,1.33-1.11
	l20.1,1.76c11.06,0.97,19.24,10.72,18.27,21.78v0C484.21,336.57,473.83,345.29,462.05,344.25z"/>
<path class="st1" d="M444.16,318.11c0,0,17.8,1.99,18.44-15.47"/>
<line class="st1" x1="477.68" y1="339.33" x2="457.09" y2="314.79"/>
<path class="st1" d="M454.34,378.32L454.34,378.32c-9.09,6.37-21.63,4.16-27.99-4.94l-11.57-16.53c-0.39-0.55-0.25-1.32,0.3-1.7
	l16.53-11.57c9.09-6.37,21.63-4.16,27.99,4.94l0,0C466.37,358.2,464.02,371.54,454.34,378.32z"/>
<path class="st1" d="M423.83,369.8c0,0,14.91-9.92,4.18-23.71"/>
<line class="st1" x1="463.14" y1="364.51" x2="431.59" y2="358.95"/>
<path class="st1" d="M470.33,409.38L470.33,409.38c-2.87,10.72-13.9,17.09-24.62,14.21l-19.49-5.22c-0.65-0.17-1.04-0.85-0.87-1.5
	l5.22-19.49c2.87-10.72,13.9-17.09,24.62-14.21h0C466.61,386.23,473.39,397.97,470.33,409.38z"/>
<path class="st1" d="M441.48,422.46c0,0,5.05-17.18-12.04-20.85"/>
<line class="st1" x1="468.19" y1="393.14" x2="440.45" y2="409.16"/>
<path class="st1" d="M502.54,422.9L502.54,422.9c4.69,10.06,0.34,22.02-9.72,26.71l-18.29,8.53c-0.61,0.29-1.34,0.02-1.63-0.59
	l-8.53-18.29c-4.69-10.06-0.34-22.02,9.72-26.71h0C484.81,407.55,497.54,412.19,502.54,422.9z"/>
<path class="st1" d="M488.85,451.46c0,0-7.18-16.41-22.62-8.23"/>
<line class="st1" x1="490.46" y1="411.83" x2="479.51" y2="441.93"/>
<path class="st1" d="M535.9,412.55L535.9,412.55c10.06,4.69,14.41,16.65,9.72,26.71l-8.53,18.29c-0.29,0.61-1.01,0.88-1.63,0.59
	l-18.29-8.53c-10.06-4.69-14.41-16.65-9.72-26.71l0,0C512.46,412.19,525.19,407.55,535.9,412.55z"/>
<path class="st1" d="M543.77,443.23c0,0-16.05-7.96-22.62,8.23"/>
<line class="st1" x1="519.54" y1="411.83" x2="530.49" y2="441.93"/>
<path class="st1" d="M554.81,383.17L554.81,383.17c10.72-2.87,21.74,3.49,24.62,14.21l5.22,19.49c0.17,0.65-0.21,1.32-0.87,1.5
	l-19.49,5.22c-10.72,2.87-21.74-3.49-24.62-14.21l0,0C536.61,397.97,543.39,386.23,554.81,383.17z"/>
<path class="st1" d="M580.56,401.62c0,0-17.41,4.22-12.04,20.85"/>
<line class="st1" x1="541.81" y1="393.14" x2="569.55" y2="409.16"/>
<path class="st1" d="M550.41,348.52L550.41,348.52c6.37-9.09,18.9-11.3,27.99-4.94l16.53,11.57c0.55,0.39,0.69,1.15,0.3,1.7
	l-11.57,16.53c-6.37,9.09-18.9,11.3-27.99,4.94v0C545.98,371.54,543.63,358.2,550.41,348.52z"/>
<path class="st1" d="M581.99,346.09c0,0-10.62,14.42,4.18,23.71"/>
<line class="st1" x1="546.86" y1="364.51" x2="578.41" y2="358.95"/>
<path class="st1" d="M524.76,324.8L524.76,324.8c-0.97-11.06,7.21-20.81,18.27-21.78l20.1-1.76c0.67-0.06,1.27,0.44,1.33,1.11
	l1.76,20.1c0.97,11.06-7.21,20.81-18.27,21.78h0C536.17,345.29,525.79,336.57,524.76,324.8z"/>
<path class="st1" d="M547.4,302.64c0,0,1.13,17.87,18.44,15.47"/>
<line class="st1" x1="532.32" y1="339.33" x2="552.91" y2="314.79"/>
<circle class="st1" cx="505" cy="371.89" r="106.01"/>
<path class="st1" d="M466.56,273.07l14.86-4.19c0.39,1.36,0.58,2.78,0.58,4.19c0,8.47-6.97,15.44-15.44,15.44
	c-5.9,0-11.3-3.38-13.88-8.69L466.56,273.07z"/>
<path class="st1" d="M412.03,320.9l8.69-12.76c1.17,0.8,2.23,1.75,3.14,2.84c5.44,6.49,4.59,16.31-1.9,21.75
	c-4.52,3.79-10.83,4.68-16.22,2.27L412.03,320.9z"/>
<path class="st1" d="M401,392.59l-1.55-15.36c1.41-0.14,2.83-0.09,4.23,0.16c8.34,1.47,14,9.55,12.52,17.89
	c-1.02,5.81-5.29,10.55-10.97,12.17L401,392.59z"/>
<path class="st1" d="M438.64,454.6l-11.06-10.77c0.99-1.02,2.11-1.89,3.34-2.6c7.34-4.24,16.86-1.68,21.09,5.65
	c2.95,5.11,2.72,11.48-0.58,16.37L438.64,454.6z"/>
<path class="st1" d="M507.33,477.9l-15.4-1.14c0.1-1.41,0.4-2.81,0.89-4.14c2.9-7.96,11.83-12.13,19.79-9.23
	c5.54,2.02,9.47,7.04,10.08,12.91L507.33,477.9z"/>
<path class="st1" d="M574.93,451.61l-12.53,9.02c-0.83-1.15-1.49-2.41-1.98-3.74c-2.9-7.96,1.27-16.89,9.23-19.79
	c5.54-2.02,11.78-0.69,16.02,3.41L574.93,451.61z"/>
<path class="st1" d="M609.81,388.01l-3.8,14.97c-1.37-0.35-2.69-0.89-3.92-1.59c-7.34-4.24-9.89-13.76-5.65-21.09
	c2.95-5.11,8.58-8.1,14.46-7.68L609.81,388.01z"/>
<path class="st1" d="M595.65,316.87l6.71,13.91c-1.28,0.62-2.63,1.05-4.03,1.3c-8.34,1.47-16.42-4.18-17.89-12.52
	c-1.02-5.81,1.37-11.72,6.14-15.18L595.65,316.87z"/>
<path class="st1" d="M539.07,271.47l14.08,6.34c-0.58,1.29-1.34,2.5-2.25,3.59c-5.44,6.49-15.26,7.35-21.75,1.9
	c-4.52-3.79-6.49-9.86-5.05-15.58L539.07,271.47z"/>
<path class="st1" d="M474.38,232.5c0,0-22.2-37.88,31.55-53.63"/>
<path class="st1" d="M534.98,232.5c0,0,23.13-37.88-30.63-53.63"/>
<path class="st0" d="M513.38,232.5c0,0,7.88-8.81,16.69,1.31c2.25-1.31,22.13-4.5,25.5,7.31c0.75,3,2.49,11.81-2.41,18.19
	c-2.28-0.19-13.53-15.56-37.9-6.56c-7.69,0.38-22.29,0.38-22.29,0.38s-23.09-8.25-35.65,6.19c-3.38-1.5-17.44-24.56,14.25-26.81
	c2.81,0,6.19,0,6.19,0s6.19-8.44,15.21,0c-0.03-1.69-9.44-38.81,10.92-39.19C506.06,193.31,524.25,196.13,513.38,232.5z"/>
<path class="st2" d="M513.71,218.41c0,0,11.08-8.06,24.68,0"/>
<path class="st2" d="M494.34,218.41c0,0-11.08-8.06-24.68,0"/>
<path class="st2" d="M492.71,209.3c0,0-7.3-11.65-21.43-5.37"/>
<path class="st2" d="M495.51,202.95c0,0-0.15-14.36-15.51-11.45"/>
<path class="st2" d="M515.34,209.42c0,0,7.15-12.24,21.43-5.37"/>
<path class="st2" d="M512,202.95c0,0,0.15-14.36,15.51-11.45"/>
<line class="st2" x1="504.35" y1="181.5" x2="504.35" y2="204.56"/>
<path class="st1" d="M368.97,328.72c0,0-43.9,0.29-30.67-54.13"/>
<path class="st1" d="M399.27,276.23c0,0-21.24-38.96-61.75-0.29"/>
<path class="st0" d="M388.47,294.94c0,0-3.69-11.23,9.48-13.8c-0.01-2.6,7.17-21.41,19.08-18.43c2.97,0.85,11.48,3.75,14.55,11.18
	c-1.3,1.88-20.24,3.93-24.63,29.54c-3.52,6.85-10.82,19.49-10.82,19.49s-18.69,15.87-12.47,33.97c-2.99,2.17-29.99,2.82-16.1-25.75
	c1.41-2.44,3.09-5.36,3.09-5.36s-4.21-9.58,7.61-13.18c-1.48-0.82-38.33-11.23-28.48-29.05
	C350.88,281.68,362.41,267.34,388.47,294.94z"/>
<path class="st2" d="M376.43,287.61c0,0-1.44-13.62,12.34-21.38"/>
<path class="st2" d="M366.75,304.38c0,0-12.52,5.56-12.34,21.38"/>
<path class="st2" d="M358.05,301.24c0,0-13.74,0.5-15.36,15.87"/>
<path class="st2" d="M353.95,295.64c0,0-12.51-7.05-17.67,7.71"/>
<path class="st2" d="M369.46,281.7c0,0-7.02-12.31,6.07-21.24"/>
<path class="st2" d="M362.19,281.36c0,0-12.36-7.31-2.16-19.15"/>
<line class="st2" x1="339.79" y1="277.25" x2="359.77" y2="288.79"/>
<path class="st1" d="M399.6,468.11c0,0-21.7,38.17-62.21-0.51"/>
<path class="st1" d="M369.3,415.62c0,0-44.36-1.09-31.13,53.33"/>
<path class="st0" d="M380.1,434.33c0,0-11.57-2.41-7.21-15.11c-2.26-1.29-14.96-16.91-6.42-25.74c2.22-2.15,8.98-8.06,16.96-7.01
	c0.98,2.07-6.71,19.5,13.27,36.11c4.17,6.47,11.47,19.11,11.47,19.11s4.4,24.12,23.18,27.78c0.39,3.67-12.55,27.38-30.35,1.07
	c-1.41-2.44-3.09-5.36-3.09-5.36s-10.4-1.14-7.61-13.18c-1.45,0.87-28.89,27.58-39.4,10.14C349.82,460.26,343.16,443.1,380.1,434.33
	z"/>
<path class="st2" d="M367.73,441.09c0,0-12.52-5.56-12.34-21.38"/>
<path class="st2" d="M377.41,457.87c0,0-1.44,13.62,12.34,21.38"/>
<path class="st2" d="M370.34,463.83c0,0-6.44,12.15,6.07,21.24"/>
<path class="st2" d="M363.44,464.58c0,0-12.36,7.31-2.16,19.15"/>
<path class="st2" d="M359.13,444.17c0,0-14.18-0.08-15.36-15.87"/>
<path class="st2" d="M355.19,450.3c0,0-12.51,7.05-17.67-7.71"/>
<line class="st2" x1="340.44" y1="467.64" x2="360.41" y2="456.11"/>
<path class="st1" d="M535.63,511.28c0,0,22.2,37.88-31.55,53.63"/>
<path class="st1" d="M475.02,511.28c0,0-23.13,37.88,30.63,53.63"/>
<path class="st0" d="M496.63,511.28c0,0-7.88,8.81-16.69-1.31c-2.25,1.31-22.13,4.5-25.5-7.31c-0.75-3-2.49-11.81,2.41-18.19
	c2.28,0.19,13.53,15.56,37.9,6.56c7.69-0.38,22.29-0.38,22.29-0.38s23.09,8.25,35.65-6.19c3.38,1.5,17.44,24.56-14.25,26.81
	c-2.81,0-6.19,0-6.19,0s-6.19,8.44-15.21,0c0.03,1.69,9.44,38.81-10.92,39.19C503.94,550.47,485.75,547.65,496.63,511.28z"/>
<path class="st2" d="M496.29,525.37c0,0-11.08,8.06-24.68,0"/>
<path class="st2" d="M515.66,525.37c0,0,11.08,8.06,24.68,0"/>
<path class="st2" d="M517.29,534.48c0,0,7.3,11.65,21.43,5.37"/>
<path class="st2" d="M514.49,540.83c0,0,0.15,14.36,15.51,11.45"/>
<path class="st2" d="M494.66,534.36c0,0-7.15,12.24-21.43,5.37"/>
<path class="st2" d="M498,540.83c0,0-0.15,14.36-15.51,11.45"/>
<line class="st2" x1="505.65" y1="562.28" x2="505.65" y2="539.22"/>
<path class="st1" d="M641.03,415.06c0,0,43.9-0.29,30.67,54.13"/>
<path class="st1" d="M610.73,467.55c0,0,21.24,38.96,61.75,0.29"/>
<path class="st0" d="M621.53,448.84c0,0,3.69,11.23-9.48,13.8c0.01,2.6-7.17,21.41-19.08,18.43c-2.97-0.85-11.48-3.75-14.55-11.18
	c1.3-1.88,20.24-3.93,24.63-29.54c3.52-6.85,10.82-19.49,10.82-19.49s18.69-15.87,12.47-33.97c2.99-2.17,29.99-2.82,16.1,25.75
	c-1.41,2.44-3.09,5.36-3.09,5.36s4.21,9.58-7.61,13.18c1.47,0.82,38.33,11.23,28.48,29.05C659.12,462.1,647.59,476.44,621.53,448.84
	z"/>
<path class="st2" d="M633.57,456.17c0,0,1.44,13.62-12.34,21.38"/>
<path class="st2" d="M643.25,439.4c0,0,12.52-5.56,12.34-21.38"/>
<path class="st2" d="M651.95,442.54c0,0,13.74-0.5,15.36-15.87"/>
<path class="st2" d="M656.05,448.14c0,0,12.51,7.05,17.67-7.71"/>
<path class="st2" d="M640.54,462.08c0,0,7.02,12.31-6.07,21.24"/>
<path class="st2" d="M647.81,462.42c0,0,12.36,7.31,2.16,19.15"/>
<line class="st2" x1="670.21" y1="466.53" x2="650.23" y2="454.99"/>
<path class="st1" d="M610.4,275.67c0,0,21.7-38.17,62.21,0.51"/>
<path class="st1" d="M640.7,328.16c0,0,44.36,1.09,31.13-53.33"/>
<path class="st0" d="M629.9,309.45c0,0,11.57,2.41,7.21,15.11c2.26,1.29,14.96,16.91,6.42,25.74c-2.22,2.15-8.98,8.06-16.96,7.01
	c-0.98-2.07,6.71-19.5-13.27-36.11c-4.17-6.47-11.47-19.11-11.47-19.11s-4.4-24.12-23.18-27.78c-0.39-3.67,12.55-27.38,30.35-1.07
	c1.41,2.44,3.09,5.36,3.09,5.36s10.4,1.14,7.61,13.18c1.45-0.87,28.89-27.58,39.4-10.14C660.18,283.52,666.84,300.68,629.9,309.45z"
	/>
<path class="st2" d="M642.27,302.69c0,0,12.52,5.56,12.34,21.38"/>
<path class="st2" d="M632.59,285.91c0,0,1.44-13.62-12.34-21.38"/>
<path class="st2" d="M639.66,279.95c0,0,6.44-12.15-6.07-21.24"/>
<path class="st2" d="M646.56,279.2c0,0,12.36-7.31,2.16-19.15"/>
<path class="st2" d="M650.87,299.6c0,0,14.18,0.08,15.36,15.87"/>
<path class="st2" d="M654.81,293.48c0,0,12.51-7.05,17.67,7.71"/>
<line class="st2" x1="669.56" y1="276.14" x2="649.59" y2="287.67"/>
<path class="st0" d="M450.19,265.88L442.97,252c0,0,4.03-21.75-6.66-30.38c-0.38-2.44-2.06-8.63,5.63-9.94
	c-1.29,2.42-5.09,9.99,0.47,13.36c1.67,1.01,3.7,1.23,5.6,0.81c3.47-0.77,8.06-2.71,4.47-14.15c-1.69-5.37-5.82-9.75-11.23-11.31
	c-5.03-1.45-11.27,0.82-15.49,9.53c-1.11,2.28-1.85,4.72-2.35,7.21c-0.75,3.69-1.99,10.74,0.24,16.48
	c-2.44-0.62-15.21-9.51-28.26-4.89c-6.29,2.23-10.7,8.17-10.37,14.83c0.24,4.77,2.74,10.2,10.81,14.24
	c2.66,1.33,5.78,1.62,8.52,0.48c2.31-0.96,4.41-2.84,4.41-6.66c-0.56-1.5-1.69-10.69-12-8.44c-1.31,0.38,6.75-7.31,15.75,4.13
	c1.13,1.88,7.88,10.13,20.18,11.52c-0.19,0.56,10.29,11.36,10.29,11.36l1.2-5.44L450.19,265.88z"/>
<path class="st2" d="M407.44,229.13c0,0-1.5-15.46,17.63-12.51"/>
<path class="st0" d="M385.78,366.35l-15.63-0.69c0,0-16.82-14.37-29.63-9.42c-2.3-0.89-8.5-2.53-5.79-9.84
	c1.45,2.33,6.11,9.4,11.8,6.27c1.71-0.94,2.92-2.58,3.5-4.44c1.07-3.39,1.68-8.33-10.02-10.95c-5.5-1.23-11.36,0.16-15.41,4.07
	c-3.77,3.63-4.92,10.17,0.51,18.18c1.42,2.1,3.16,3.96,5.07,5.64c2.82,2.49,8.3,7.1,14.4,8.03c-1.76,1.8-15.84,8.42-18.36,22.03
	c-1.21,6.56,1.72,13.35,7.66,16.4c4.25,2.18,10.2,2.73,17.74-2.24c2.48-1.63,4.29-4.19,4.68-7.14c0.33-2.48-0.26-5.24-3.56-7.15
	c-1.58-0.26-10.1-3.88-13.31,6.17c-0.33,1.32-2.96-9.5,11.45-11.58c2.19-0.04,12.71-1.76,20.06-11.71
	c0.39,0.44,14.98-3.24,14.98-3.24l-4.11-3.75L385.78,366.35z"/>
<path class="st2" d="M332.58,385c0,0-14.14-6.43-2.02-21.52"/>
<path class="st0" d="M440.59,472.37l-8.41,13.19c0,0-20.85,7.38-22.98,20.95c-1.92,1.54-6.44,6.1-11.42,0.1
	c2.74-0.09,11.19-0.59,11.34-7.09c0.04-1.95-0.78-3.82-2.1-5.26c-2.4-2.62-6.38-5.63-14.49,3.21c-3.81,4.15-5.54,9.92-4.18,15.38
	c1.26,5.08,6.35,9.35,16,8.65c2.53-0.18,5.01-0.76,7.42-1.57c3.56-1.2,10.3-3.64,14.16-8.45c0.68,2.42-0.63,17.93,9.9,26.92
	c5.08,4.33,12.42,5.18,18.03,1.57c4.01-2.59,7.46-7.47,6.93-16.48c-0.17-2.97-1.49-5.81-3.84-7.62c-1.98-1.52-4.67-2.4-7.97-0.49
	c-1.02,1.24-8.41,6.81-1.31,14.61c0.98,0.95-9.71-2.19-4.3-15.7c1.06-1.91,4.83-11.88-0.11-23.23c0.58-0.12,4.69-14.59,4.69-14.59
	l-5.31,1.68L440.59,472.37z"/>
<path class="st2" d="M430.14,527.76c0,0-12.64,9.03-19.65-9.01"/>
<path class="st0" d="M559.81,477.9l7.22,13.88c0,0-4.03,21.75,6.66,30.38c0.38,2.44,2.06,8.63-5.63,9.94
	c1.29-2.42,5.09-9.99-0.47-13.36c-1.67-1.01-3.7-1.23-5.6-0.81c-3.47,0.77-8.06,2.71-4.47,14.15c1.69,5.37,5.82,9.75,11.23,11.31
	c5.03,1.45,11.27-0.82,15.49-9.53c1.11-2.28,1.85-4.72,2.35-7.21c0.74-3.69,1.99-10.74-0.24-16.48c2.44,0.62,15.21,9.51,28.26,4.89
	c6.29-2.23,10.7-8.17,10.37-14.83c-0.24-4.77-2.74-10.2-10.81-14.24c-2.66-1.33-5.78-1.62-8.52-0.48c-2.31,0.96-4.41,2.84-4.41,6.66
	c0.56,1.5,1.69,10.69,12,8.44c1.31-0.38-6.75,7.31-15.75-4.13c-1.13-1.88-7.88-10.13-20.18-11.52c0.19-0.56-10.29-11.36-10.29-11.36
	l-1.2,5.44L559.81,477.9z"/>
<path class="st2" d="M602.56,514.65c0,0,1.5,15.46-17.63,12.51"/>
<path class="st0" d="M624.22,377.43l15.63,0.69c0,0,16.82,14.37,29.63,9.42c2.3,0.89,8.5,2.53,5.79,9.84
	c-1.45-2.33-6.11-9.4-11.8-6.27c-1.71,0.94-2.92,2.58-3.5,4.44c-1.07,3.39-1.68,8.33,10.02,10.95c5.5,1.23,11.36-0.16,15.41-4.07
	c3.77-3.63,4.92-10.17-0.51-18.18c-1.42-2.1-3.16-3.96-5.07-5.64c-2.82-2.49-8.3-7.1-14.4-8.03c1.76-1.8,15.84-8.42,18.36-22.03
	c1.21-6.56-1.72-13.35-7.66-16.4c-4.25-2.18-10.2-2.73-17.74,2.24c-2.48,1.63-4.29,4.19-4.68,7.14c-0.33,2.48,0.26,5.24,3.56,7.15
	c1.58,0.26,10.1,3.88,13.31-6.17c0.33-1.32,2.96,9.5-11.45,11.58c-2.19,0.04-12.71,1.76-20.06,11.71
	c-0.39-0.44-14.98,3.24-14.98,3.24l4.11,3.75L624.22,377.43z"/>
<path class="st2" d="M677.42,358.78c0,0,14.14,6.43,2.02,21.52"/>
<path class="st0" d="M569.41,271.41l8.41-13.19c0,0,20.85-7.38,22.98-20.95c1.92-1.54,6.44-6.1,11.42-0.1
	c-2.74,0.09-11.19,0.59-11.34,7.09c-0.04,1.95,0.78,3.82,2.1,5.26c2.4,2.62,6.38,5.63,14.49-3.21c3.81-4.15,5.54-9.92,4.18-15.38
	c-1.26-5.08-6.35-9.35-16-8.65c-2.53,0.18-5.01,0.76-7.42,1.57c-3.56,1.2-10.3,3.64-14.16,8.45c-0.68-2.42,0.63-17.93-9.9-26.92
	c-5.08-4.33-12.42-5.18-18.03-1.57c-4.01,2.59-7.46,7.47-6.93,16.48c0.17,2.97,1.49,5.81,3.84,7.62c1.98,1.52,4.67,2.4,7.97,0.49
	c1.02-1.24,8.41-6.81,1.31-14.61c-0.98-0.95,9.71,2.19,4.3,15.7c-1.06,1.91-4.83,11.88,0.11,23.23c-0.58,0.12-4.69,14.59-4.69,14.59
	l5.31-1.68L569.41,271.41z"/>
<path class="st2" d="M579.86,216.02c0,0,12.64-9.03,19.65,9.01"/>
<g>
	<path class="st0" d="M504.35,172.22c-8.55,2.59-16.88,4.84-25.2,7.14c-8.31,2.28-16.58,4.48-24.81,6.83
		c-8.23,2.33-16.49,4.6-24.75,7.03c-2.06,0.62-4.18,1.11-6.24,1.75c-2.07,0.62-4.16,1.2-6.27,1.76c-4.24,1.09-8.39,2.4-12.83,3.25
		c6.92-5.65,14.54-10.31,22.54-14.11c7.97-3.89,16.34-6.92,24.86-9.32c8.53-2.42,17.27-4.03,26.09-4.91
		C486.56,170.85,495.51,170.64,504.35,172.22z"/>
</g>
<g>
	<path class="st0" d="M453.38,201.55c-0.71-1.8-0.89-3.61-0.91-5.4c0.01-1.79,0.26-3.55,0.71-5.27c0.91-3.44,2.66-6.69,5.15-9.41
		c2.47-2.72,5.71-4.9,9.31-5.92c1.79-0.52,3.64-0.78,5.49-0.69c1.83,0.07,3.66,0.48,5.37,1.32c-2.85,2.53-5.17,4.36-7.18,6.32
		c-2.02,1.92-3.81,3.75-5.6,5.72c-1.81,1.94-3.57,4.03-5.55,6.23C458.18,196.65,456.13,198.97,453.38,201.55z"/>
</g>
<g>
	<path class="st0" d="M504.35,172.22c8.84-1.58,17.79-1.37,26.61-0.57c8.82,0.88,17.57,2.49,26.09,4.91
		c8.53,2.4,16.89,5.43,24.86,9.32c8,3.8,15.63,8.46,22.54,14.11c-4.44-0.85-8.6-2.16-12.83-3.25c-2.11-0.56-4.2-1.15-6.27-1.76
		c-2.06-0.64-4.18-1.13-6.24-1.75c-8.26-2.43-16.51-4.7-24.75-7.03c-8.23-2.35-16.5-4.55-24.81-6.83
		C521.24,177.06,512.9,174.81,504.35,172.22z"/>
</g>
<g>
	<path class="st0" d="M555.32,201.55c-2.74-2.58-4.79-4.89-6.79-7.11c-1.98-2.2-3.74-4.28-5.55-6.23c-1.79-1.97-3.58-3.8-5.6-5.72
		c-2.02-1.96-4.33-3.79-7.18-6.32c1.71-0.84,3.53-1.25,5.37-1.32c1.84-0.1,3.7,0.17,5.49,0.69c3.59,1.03,6.84,3.2,9.31,5.92
		c2.49,2.72,4.24,5.98,5.15,9.41c0.45,1.72,0.71,3.48,0.71,5.27C556.21,197.94,556.03,199.75,555.32,201.55z"/>
</g>
<g>
	<path class="st0" d="M331.76,272.61c-2.03,8.7-4.25,17.04-6.42,25.4c-2.18,8.33-4.41,16.6-6.49,24.9
		c-2.1,8.3-4.26,16.58-6.28,24.95c-0.5,2.09-1.13,4.17-1.61,6.28c-0.5,2.1-1.04,4.2-1.61,6.31c-1.18,4.21-2.12,8.47-3.6,12.74
		c-1.44-8.82-1.66-17.75-0.95-26.58c0.62-8.85,2.18-17.61,4.36-26.19c2.17-8.59,5.14-16.97,8.79-25.05
		C321.67,287.34,325.97,279.49,331.76,272.61z"/>
</g>
<g>
	<path class="st0" d="M331.67,331.42c-1.91-0.28-3.57-1.03-5.13-1.91c-1.55-0.9-2.94-2-4.21-3.25c-2.52-2.5-4.46-5.65-5.58-9.17
		c-1.13-3.5-1.38-7.4-0.48-11.02c0.45-1.81,1.14-3.55,2.15-5.09c0.98-1.55,2.25-2.93,3.82-3.99c0.77,3.73,1.19,6.65,1.88,9.38
		c0.65,2.71,1.34,5.17,2.15,7.71c0.78,2.54,1.7,5.11,2.62,7.92C329.83,324.82,330.81,327.76,331.67,331.42z"/>
</g>
<g>
	<path class="st0" d="M331.76,272.61c3.06-8.45,7.71-16.09,12.81-23.33c5.17-7.2,10.94-13.97,17.3-20.14
		c6.34-6.19,13.15-11.91,20.5-16.87c7.29-5.03,15.14-9.3,23.49-12.47c-2.95,3.42-6.17,6.36-9.23,9.49
		c-1.54,1.54-3.09,3.06-4.66,4.55c-1.59,1.46-3.07,3.05-4.63,4.53c-6.24,5.94-12.33,11.95-18.46,17.91
		c-6.15,5.96-12.19,12.01-18.32,18.07C344.39,260.41,338.28,266.51,331.76,272.61z"/>
</g>
<g>
	<path class="st0" d="M382.64,243.14c-3.6,1.09-6.64,1.7-9.55,2.32c-2.9,0.61-5.58,1.1-8.17,1.69c-2.6,0.57-5.08,1.2-7.75,1.99
		c-2.71,0.76-5.45,1.86-9.07,3.06c0.13-1.9,0.68-3.68,1.54-5.31c0.84-1.64,1.99-3.12,3.34-4.41c2.69-2.6,6.19-4.33,9.78-5.1
		c3.6-0.79,7.3-0.69,10.73,0.25c1.72,0.47,3.37,1.13,4.92,2.02C379.96,240.56,381.44,241.62,382.64,243.14z"/>
</g>
<g>
	<path class="st0" d="M332.4,472.28c6.52,6.11,12.63,12.2,18.79,18.26c6.13,6.06,12.17,12.12,18.32,18.07
		c6.14,5.96,12.23,11.98,18.46,17.91c1.56,1.48,3.05,3.07,4.63,4.53c1.57,1.48,3.12,3,4.66,4.55c3.06,3.12,6.28,6.07,9.23,9.49
		c-8.36-3.16-16.2-7.43-23.49-12.47c-7.36-4.96-14.16-10.69-20.5-16.87c-6.36-6.17-12.13-12.94-17.3-20.14
		C340.11,488.38,335.46,480.73,332.4,472.28z"/>
</g>
<g>
	<path class="st0" d="M383.29,501.76c-1.2,1.51-2.68,2.58-4.22,3.49c-1.55,0.89-3.21,1.55-4.92,2.02
		c-3.43,0.93-7.13,1.04-10.73,0.25c-3.59-0.77-7.1-2.5-9.78-5.1c-1.34-1.29-2.5-2.76-3.34-4.41c-0.86-1.62-1.41-3.41-1.54-5.31
		c3.62,1.2,6.36,2.3,9.07,3.06c2.67,0.79,5.15,1.42,7.75,1.99c2.59,0.59,5.27,1.08,8.17,1.69
		C376.65,500.06,379.68,500.67,383.29,501.76z"/>
</g>
<g>
	<path class="st0" d="M332.4,472.28c-5.79-6.87-10.08-14.72-13.8-22.76c-3.65-8.08-6.63-16.46-8.79-25.05
		c-2.19-8.58-3.75-17.34-4.36-26.19c-0.71-8.83-0.49-17.76,0.95-26.58c1.49,4.27,2.43,8.53,3.6,12.74c0.57,2.11,1.11,4.21,1.61,6.31
		c0.47,2.11,1.11,4.18,1.61,6.28c2.02,8.37,4.19,16.65,6.28,24.95c2.08,8.3,4.31,16.57,6.49,24.9
		C328.15,455.24,330.37,463.58,332.4,472.28z"/>
</g>
<g>
	<path class="st0" d="M332.32,413.48c-0.86,3.66-1.84,6.6-2.77,9.43c-0.92,2.81-1.84,5.39-2.62,7.92c-0.81,2.53-1.5,5-2.15,7.71
		c-0.69,2.73-1.12,5.65-1.88,9.38c-1.58-1.06-2.85-2.43-3.82-3.99c-1.01-1.55-1.7-3.29-2.15-5.09c-0.91-3.63-0.65-7.53,0.48-11.02
		c1.11-3.52,3.06-6.67,5.58-9.17c1.27-1.25,2.66-2.35,4.21-3.25C328.74,414.51,330.41,413.76,332.32,413.48z"/>
</g>
<g>
	<path class="st0" d="M505.65,571.56c8.55-2.59,16.88-4.84,25.2-7.14c8.31-2.28,16.58-4.48,24.81-6.83
		c8.23-2.33,16.49-4.6,24.75-7.03c2.06-0.62,4.18-1.11,6.24-1.75c2.07-0.62,4.16-1.2,6.27-1.76c4.24-1.09,8.39-2.4,12.83-3.25
		c-6.92,5.65-14.54,10.31-22.54,14.11c-7.97,3.89-16.34,6.92-24.86,9.32c-8.53,2.42-17.27,4.03-26.09,4.91
		C523.44,572.93,514.49,573.14,505.65,571.56z"/>
</g>
<g>
	<path class="st0" d="M556.62,542.23c0.71,1.8,0.89,3.61,0.91,5.4c-0.01,1.79-0.26,3.55-0.71,5.27c-0.91,3.44-2.66,6.69-5.15,9.41
		c-2.47,2.72-5.71,4.9-9.31,5.92c-1.79,0.52-3.64,0.78-5.49,0.69c-1.84-0.07-3.66-0.48-5.37-1.32c2.85-2.53,5.17-4.36,7.18-6.32
		c2.02-1.92,3.81-3.75,5.6-5.72c1.81-1.94,3.57-4.03,5.55-6.23C551.82,547.13,553.87,544.81,556.62,542.23z"/>
</g>
<g>
	<path class="st0" d="M505.65,571.56c-8.84,1.58-17.79,1.37-26.61,0.57c-8.82-0.88-17.57-2.49-26.09-4.91
		c-8.53-2.4-16.89-5.43-24.86-9.32c-8-3.8-15.63-8.46-22.54-14.11c4.44,0.85,8.6,2.16,12.83,3.25c2.11,0.56,4.2,1.15,6.27,1.76
		c2.06,0.64,4.18,1.13,6.24,1.75c8.26,2.43,16.51,4.7,24.75,7.03c8.23,2.35,16.5,4.55,24.81,6.83
		C488.76,566.72,497.1,568.97,505.65,571.56z"/>
</g>
<g>
	<path class="st0" d="M454.68,542.23c2.74,2.58,4.79,4.89,6.79,7.11c1.98,2.2,3.74,4.28,5.55,6.23c1.79,1.97,3.58,3.8,5.6,5.72
		c2.02,1.96,4.33,3.79,7.18,6.32c-1.71,0.84-3.53,1.25-5.37,1.32c-1.84,0.1-3.7-0.17-5.49-0.69c-3.59-1.03-6.84-3.2-9.31-5.92
		c-2.49-2.72-4.24-5.98-5.15-9.41c-0.45-1.72-0.71-3.48-0.71-5.27C453.79,545.84,453.97,544.03,454.68,542.23z"/>
</g>
<g>
	<path class="st0" d="M678.24,471.17c2.03-8.7,4.25-17.04,6.42-25.4c2.18-8.33,4.41-16.6,6.49-24.9c2.1-8.3,4.26-16.58,6.28-24.95
		c0.5-2.09,1.13-4.17,1.61-6.28c0.5-2.1,1.04-4.21,1.61-6.31c1.18-4.21,2.12-8.47,3.6-12.74c1.44,8.82,1.66,17.75,0.95,26.58
		c-0.62,8.85-2.18,17.61-4.36,26.19c-2.17,8.59-5.14,16.97-8.79,25.05C688.33,456.44,684.03,464.29,678.24,471.17z"/>
</g>
<g>
	<path class="st0" d="M678.33,412.36c1.91,0.28,3.57,1.03,5.13,1.91c1.55,0.9,2.94,2,4.21,3.25c2.52,2.5,4.46,5.65,5.58,9.17
		c1.13,3.5,1.38,7.4,0.48,11.02c-0.45,1.81-1.14,3.55-2.15,5.09c-0.98,1.55-2.25,2.93-3.82,3.99c-0.77-3.73-1.19-6.65-1.88-9.38
		c-0.65-2.71-1.34-5.17-2.15-7.71c-0.78-2.54-1.7-5.11-2.62-7.92C680.17,418.96,679.19,416.02,678.33,412.36z"/>
</g>
<g>
	<path class="st0" d="M678.24,471.17c-3.06,8.45-7.71,16.09-12.81,23.33c-5.17,7.2-10.94,13.97-17.3,20.14
		c-6.34,6.19-13.15,11.91-20.5,16.87c-7.29,5.03-15.14,9.3-23.49,12.47c2.95-3.42,6.17-6.36,9.23-9.49
		c1.54-1.54,3.09-3.06,4.66-4.55c1.59-1.46,3.07-3.05,4.63-4.53c6.24-5.94,12.33-11.95,18.46-17.91
		c6.15-5.96,12.19-12.01,18.32-18.07C665.61,483.37,671.72,477.27,678.24,471.17z"/>
</g>
<g>
	<path class="st0" d="M627.36,500.64c3.6-1.09,6.64-1.7,9.55-2.32c2.9-0.61,5.58-1.1,8.17-1.69c2.6-0.57,5.08-1.2,7.75-1.99
		c2.71-0.76,5.45-1.86,9.07-3.06c-0.13,1.9-0.68,3.68-1.54,5.31c-0.84,1.64-1.99,3.12-3.34,4.41c-2.69,2.6-6.19,4.33-9.78,5.1
		c-3.6,0.79-7.3,0.69-10.73-0.25c-1.72-0.47-3.37-1.13-4.92-2.02C630.04,503.22,628.56,502.16,627.36,500.64z"/>
</g>
<g>
	<path class="st0" d="M677.6,271.49c-6.52-6.11-12.63-12.2-18.79-18.26c-6.13-6.06-12.17-12.12-18.32-18.07
		c-6.14-5.96-12.23-11.98-18.46-17.91c-1.56-1.48-3.05-3.07-4.63-4.53c-1.57-1.48-3.12-3-4.66-4.55c-3.06-3.12-6.28-6.07-9.23-9.49
		c8.36,3.16,16.2,7.43,23.49,12.47c7.36,4.96,14.16,10.69,20.5,16.87c6.36,6.17,12.13,12.94,17.3,20.14
		C669.89,255.4,674.54,263.05,677.6,271.49z"/>
</g>
<g>
	<path class="st0" d="M626.71,242.02c1.2-1.51,2.68-2.58,4.22-3.49c1.55-0.89,3.21-1.55,4.92-2.02c3.43-0.93,7.13-1.04,10.73-0.25
		c3.59,0.77,7.1,2.5,9.78,5.1c1.34,1.29,2.5,2.76,3.34,4.41c0.86,1.62,1.41,3.41,1.54,5.31c-3.62-1.2-6.36-2.3-9.07-3.06
		c-2.67-0.79-5.15-1.42-7.75-1.99c-2.59-0.59-5.27-1.08-8.17-1.69C633.35,243.72,630.32,243.11,626.71,242.02z"/>
</g>
<g>
	<path class="st0" d="M677.6,271.49c5.79,6.87,10.08,14.72,13.8,22.76c3.65,8.08,6.63,16.46,8.79,25.05
		c2.19,8.58,3.75,17.34,4.36,26.19c0.71,8.83,0.49,17.76-0.95,26.58c-1.49-4.27-2.43-8.53-3.6-12.74c-0.57-2.11-1.11-4.21-1.61-6.31
		c-0.47-2.11-1.11-4.18-1.61-6.28c-2.02-8.37-4.19-16.65-6.28-24.95c-2.08-8.3-4.31-16.57-6.49-24.9
		C681.85,288.54,679.63,280.2,677.6,271.49z"/>
</g>
<g>
	<path class="st0" d="M677.68,330.3c0.86-3.66,1.84-6.6,2.77-9.43c0.92-2.81,1.84-5.39,2.62-7.92c0.81-2.53,1.5-5,2.15-7.71
		c0.69-2.73,1.12-5.65,1.88-9.38c1.58,1.06,2.85,2.43,3.82,3.99c1.01,1.55,1.7,3.29,2.15,5.09c0.91,3.63,0.65,7.53-0.48,11.02
		c-1.11,3.52-3.06,6.67-5.58,9.17c-1.27,1.25-2.66,2.35-4.21,3.25C681.26,329.27,679.59,330.02,677.68,330.3z"/>
</g>
<circle class="st1" cx="505" cy="371.89" r="214.01"/>
<path class="st1" d="M483.01,158.42c3.59-0.3,7.19-0.41,10.79-0.44c0.1-0.87,0.17-1.74,0.17-2.64c0-14.45-11.71-26.16-26.16-26.16
	s-26.16,11.71-26.16,26.16c0,3.67,0.78,7.15,2.16,10.32c2.07-0.63,4.2-1.13,6.34-1.54c6.5-2.35,13.2-4.09,20.07-4.98
	C474.42,158.61,478.74,158.3,483.01,158.42z"/>
<path class="st1" d="M556.96,162.86c3.51,0.83,6.96,1.83,10.4,2.92c0.36-0.8,0.7-1.61,0.98-2.46c4.47-13.74-3.05-28.5-16.79-32.96
	c-13.74-4.47-28.5,3.05-32.96,16.79c-1.14,3.49-1.47,7.04-1.14,10.48c2.17,0.04,4.34,0.23,6.5,0.5c6.9-0.22,13.82,0.19,20.63,1.47
	C548.74,160.38,552.94,161.42,556.96,162.86z"/>
<path class="st1" d="M379.22,198.02c2.96-2.05,6.02-3.95,9.13-5.78c-0.35-0.8-0.72-1.6-1.17-2.37c-7.22-12.51-23.22-16.8-35.73-9.57
	s-16.8,23.22-9.57,35.73c1.84,3.18,4.25,5.8,7.03,7.86c1.48-1.59,3.07-3.07,4.72-4.5c4.45-5.28,9.39-10.14,14.9-14.35
	C371.88,202.47,375.46,200.04,379.22,198.02z"/>
<path class="st1" d="M445.48,164.88c3.45-1.04,6.95-1.89,10.46-2.67c-0.08-0.87-0.19-1.74-0.38-2.62
	c-3-14.13-16.89-23.15-31.02-20.15c-14.13,3-23.15,16.89-20.15,31.02c0.76,3.59,2.25,6.83,4.25,9.64c1.9-1.05,3.87-1.97,5.88-2.82
	c5.87-3.64,12.06-6.74,18.6-9.04C437.12,166.85,441.28,165.65,445.48,164.88z"/>
<path class="st1" d="M309.13,284.2c1.54-3.26,3.24-6.43,5.02-9.56c-0.7-0.52-1.42-1.02-2.2-1.47c-12.51-7.22-28.51-2.94-35.73,9.57
	s-2.94,28.51,9.57,35.73c3.18,1.84,6.58,2.9,10.01,3.29c0.49-2.11,1.12-4.2,1.84-6.26c1.22-6.8,3.06-13.48,5.73-19.87
	C305,291.73,306.89,287.84,309.13,284.2z"/>
<path class="st1" d="M349.95,222.38c2.47-2.62,5.07-5.11,7.73-7.55c-0.51-0.71-1.04-1.41-1.64-2.08
	c-9.66-10.74-26.2-11.61-36.94-1.94c-10.74,9.66-11.61,26.2-1.94,36.94c2.46,2.73,5.37,4.79,8.51,6.22
	c1.12-1.86,2.36-3.64,3.68-5.38c3.26-6.09,7.07-11.87,11.59-17.13C343.7,228.26,346.7,225.14,349.95,222.38z"/>
<path class="st1" d="M291.53,393.88c-0.3-3.59-0.41-7.19-0.44-10.79c-0.87-0.1-1.74-0.17-2.64-0.17
	c-14.45,0-26.16,11.71-26.16,26.16s11.71,26.16,26.16,26.16c3.67,0,7.15-0.78,10.32-2.16c-0.63-2.07-1.13-4.2-1.54-6.34
	c-2.35-6.5-4.09-13.2-4.98-20.07C291.72,402.47,291.41,398.15,291.53,393.88z"/>
<path class="st1" d="M295.97,319.93c0.83-3.51,1.83-6.96,2.92-10.4c-0.8-0.36-1.61-0.7-2.46-0.98c-13.74-4.47-28.5,3.05-32.96,16.79
	c-4.47,13.74,3.05,28.5,16.79,32.96c3.49,1.14,7.04,1.47,10.48,1.14c0.04-2.17,0.23-4.34,0.5-6.5c-0.22-6.9,0.19-13.82,1.47-20.63
	C293.49,328.15,294.53,323.95,295.97,319.93z"/>
<path class="st1" d="M331.13,497.67c-2.05-2.96-3.95-6.02-5.78-9.13c-0.8,0.35-1.6,0.72-2.37,1.17
	c-12.51,7.22-16.8,23.22-9.57,35.73s23.22,16.8,35.73,9.57c3.18-1.84,5.8-4.25,7.86-7.03c-1.59-1.48-3.07-3.07-4.5-4.72
	c-5.28-4.45-10.14-9.39-14.35-14.9C335.58,505.01,333.15,501.43,331.13,497.67z"/>
<path class="st1" d="M297.99,431.41c-1.04-3.45-1.89-6.95-2.67-10.46c-0.87,0.08-1.74,0.19-2.62,0.38
	c-14.13,3-23.15,16.89-20.15,31.02c3,14.13,16.89,23.15,31.02,20.15c3.59-0.76,6.83-2.25,9.64-4.25c-1.05-1.9-1.97-3.87-2.82-5.88
	c-3.64-5.87-6.74-12.06-9.04-18.6C299.96,439.77,298.76,435.61,297.99,431.41z"/>
<path class="st1" d="M417.31,567.76c-3.26-1.54-6.43-3.24-9.56-5.02c-0.52,0.7-1.02,1.42-1.47,2.2
	c-7.22,12.51-2.94,28.51,9.57,35.73c12.51,7.22,28.51,2.94,35.73-9.57c1.84-3.18,2.9-6.58,3.29-10.01c-2.11-0.49-4.2-1.12-6.26-1.84
	c-6.8-1.22-13.48-3.06-19.87-5.73C424.84,571.89,420.95,570,417.31,567.76z"/>
<path class="st1" d="M355.49,526.94c-2.62-2.47-5.11-5.07-7.55-7.73c-0.71,0.51-1.41,1.04-2.08,1.64
	c-10.74,9.66-11.61,26.2-1.94,36.94c9.66,10.74,26.2,11.61,36.94,1.94c2.73-2.46,4.79-5.37,6.22-8.51
	c-1.86-1.12-3.64-2.36-5.38-3.68c-6.09-3.26-11.87-7.07-17.13-11.59C361.37,533.19,358.25,530.19,355.49,526.94z"/>
<path class="st1" d="M526.99,585.36c-3.59,0.3-7.19,0.41-10.79,0.44c-0.1,0.87-0.17,1.74-0.17,2.64c0,14.45,11.71,26.16,26.16,26.16
	s26.16-11.71,26.16-26.16c0-3.67-0.78-7.15-2.16-10.32c-2.07,0.63-4.2,1.13-6.34,1.54c-6.5,2.35-13.2,4.09-20.07,4.98
	C535.58,585.17,531.26,585.48,526.99,585.36z"/>
<path class="st1" d="M453.04,580.92c-3.51-0.83-6.96-1.83-10.4-2.92c-0.36,0.8-0.7,1.61-0.98,2.46
	c-4.47,13.74,3.05,28.5,16.79,32.96c13.74,4.47,28.5-3.05,32.96-16.79c1.14-3.49,1.47-7.04,1.14-10.48c-2.17-0.04-4.34-0.23-6.5-0.5
	c-6.9,0.22-13.82-0.19-20.63-1.47C461.26,583.4,457.06,582.36,453.04,580.92z"/>
<path class="st1" d="M630.78,545.76c-2.96,2.05-6.02,3.95-9.13,5.78c0.35,0.8,0.72,1.6,1.17,2.37c7.22,12.51,23.22,16.8,35.73,9.57
	s16.8-23.22,9.57-35.73c-1.84-3.18-4.25-5.8-7.03-7.86c-1.48,1.59-3.07,3.07-4.72,4.5c-4.45,5.28-9.39,10.14-14.9,14.35
	C638.12,541.31,634.54,543.74,630.78,545.76z"/>
<path class="st1" d="M564.52,578.9c-3.45,1.04-6.95,1.89-10.46,2.67c0.08,0.87,0.19,1.74,0.38,2.62c3,14.13,16.89,23.15,31.02,20.15
	c14.13-3,23.15-16.89,20.15-31.02c-0.76-3.59-2.25-6.83-4.25-9.64c-1.9,1.05-3.87,1.97-5.88,2.82c-5.87,3.64-12.06,6.74-18.6,9.04
	C572.88,576.93,568.72,578.13,564.52,578.9z"/>
<path class="st1" d="M700.87,459.58c-1.54,3.26-3.24,6.43-5.02,9.56c0.7,0.52,1.42,1.02,2.2,1.47c12.51,7.22,28.51,2.94,35.73-9.57
	c7.22-12.51,2.94-28.51-9.57-35.73c-3.18-1.84-6.58-2.9-10.01-3.29c-0.49,2.11-1.12,4.2-1.84,6.26c-1.22,6.8-3.06,13.48-5.73,19.87
	C705,452.05,703.11,455.94,700.87,459.58z"/>
<path class="st1" d="M660.05,521.4c-2.47,2.62-5.07,5.11-7.73,7.55c0.51,0.71,1.04,1.41,1.64,2.08c9.66,10.74,26.2,11.61,36.94,1.94
	c10.74-9.66,11.61-26.2,1.94-36.94c-2.46-2.73-5.37-4.79-8.51-6.22c-1.12,1.86-2.36,3.64-3.68,5.38
	c-3.26,6.09-7.07,11.87-11.59,17.13C666.3,515.52,663.3,518.64,660.05,521.4z"/>
<path class="st1" d="M718.47,349.9c0.3,3.59,0.41,7.19,0.44,10.79c0.87,0.1,1.74,0.17,2.64,0.17c14.45,0,26.16-11.71,26.16-26.16
	s-11.71-26.16-26.16-26.16c-3.67,0-7.15,0.78-10.32,2.16c0.63,2.07,1.13,4.2,1.54,6.34c2.35,6.5,4.09,13.2,4.98,20.07
	C718.28,341.31,718.59,345.63,718.47,349.9z"/>
<path class="st1" d="M714.03,423.85c-0.83,3.51-1.83,6.96-2.92,10.4c0.8,0.36,1.61,0.7,2.46,0.98c13.74,4.47,28.5-3.05,32.96-16.79
	c4.47-13.74-3.05-28.5-16.79-32.96c-3.49-1.14-7.04-1.47-10.48-1.14c-0.04,2.17-0.23,4.34-0.5,6.5c0.22,6.9-0.19,13.82-1.47,20.63
	C716.51,415.63,715.47,419.83,714.03,423.85z"/>
<path class="st1" d="M678.87,246.11c2.05,2.96,3.95,6.02,5.78,9.13c0.8-0.35,1.6-0.72,2.37-1.17c12.51-7.22,16.8-23.22,9.57-35.73
	c-7.22-12.51-23.22-16.8-35.73-9.57c-3.18,1.84-5.8,4.25-7.86,7.03c1.59,1.48,3.07,3.07,4.5,4.72c5.28,4.45,10.14,9.39,14.35,14.9
	C674.42,238.77,676.85,242.35,678.87,246.11z"/>
<path class="st1" d="M712.01,312.37c1.04,3.45,1.89,6.95,2.67,10.46c0.87-0.08,1.74-0.19,2.62-0.38c14.13-3,23.15-16.89,20.15-31.02
	c-3-14.13-16.89-23.15-31.02-20.15c-3.59,0.76-6.83,2.25-9.64,4.25c1.05,1.9,1.97,3.87,2.82,5.88c3.64,5.87,6.74,12.06,9.04,18.6
	C710.04,304.01,711.24,308.17,712.01,312.37z"/>
<path class="st1" d="M592.69,176.02c3.26,1.54,6.43,3.24,9.56,5.02c0.52-0.7,1.02-1.42,1.47-2.2c7.22-12.51,2.94-28.51-9.57-35.73
	s-28.51-2.94-35.73,9.57c-1.84,3.18-2.9,6.58-3.29,10.01c2.11,0.49,4.2,1.12,6.26,1.84c6.8,1.22,13.48,3.06,19.87,5.73
	C585.16,171.89,589.05,173.78,592.69,176.02z"/>
<path class="st1" d="M654.51,216.84c2.62,2.47,5.11,5.07,7.55,7.73c0.71-0.51,1.41-1.04,2.08-1.64c10.74-9.66,11.61-26.2,1.94-36.94
	c-9.66-10.74-26.2-11.61-36.94-1.94c-2.73,2.46-4.79,5.37-6.22,8.51c1.86,1.12,3.64,2.36,5.38,3.68
	c6.09,3.26,11.87,7.07,17.13,11.59C648.63,210.59,651.75,213.59,654.51,216.84z"/>
<path class="st1" d="M486.21,86.11L486.21,86.11c-13.89,13.89-13.89,36.4,0,50.29l6.5,6.5l12.83,12.83l19.33-19.33
	c13.89-13.89,13.89-36.4,0-50.29l0,0C514.19,75.44,496.88,75.44,486.21,86.11z"/>
<path class="st1" d="M495.51,145.7c0,0-5.86-26.76,7.08-30.07c2.09-0.53,4.33-0.27,6.26,0.69c5.71,2.82,9.4,10.58,6.49,29.61"/>
<line class="st1" x1="505" y1="78.12" x2="505" y2="115.37"/>
<line class="st1" x1="526.05" y1="88.88" x2="512" y2="118.67"/>
<line class="st1" x1="483.68" y1="88.88" x2="497.73" y2="118.67"/>
<path class="st1" d="M345.84,133.8L345.84,133.8c-5.08,18.97,6.17,38.47,25.15,43.55l8.88,2.38l17.52,4.69l7.07-26.4
	c5.08-18.97-6.17-38.47-25.15-43.55l0,0C364.73,110.56,349.75,119.22,345.84,133.8z"/>
<path class="st1" d="M383.69,180.75c0,0-18.46-20.24-8.9-29.58c1.54-1.51,3.61-2.39,5.76-2.53c6.36-0.41,13.43,4.46,20.42,22.4"/>
<line class="st1" x1="358.12" y1="117.48" x2="376.74" y2="149.73"/>
<line class="st1" x1="381.72" y1="116.27" x2="384.45" y2="149.09"/>
<line class="st1" x1="345.03" y1="137.45" x2="372.09" y2="156.23"/>
<path class="st1" d="M248.12,245.28L248.12,245.28c5.08,18.97,24.58,30.23,43.55,25.15l8.88-2.38l17.52-4.69l-7.07-26.4
	c-5.08-18.97-24.58-30.23-43.55-25.15l0,0C252.86,215.71,244.21,230.69,248.12,245.28z"/>
<path class="st1" d="M304.37,267.02c0,0-26.1-8.3-22.5-21.17c0.58-2.07,1.93-3.88,3.72-5.08c5.3-3.54,13.86-2.86,28.89,9.19"/>
<line class="st1" x1="250.59" y1="225.01" x2="282.84" y2="243.63"/>
<line class="st1" x1="270.43" y1="212.15" x2="289.2" y2="239.22"/>
<line class="st1" x1="249.24" y1="248.85" x2="282.07" y2="251.58"/>
<path class="st1" d="M219.22,390.68L219.22,390.68c13.89,13.89,36.4,13.89,50.29,0l6.5-6.5l12.83-12.83l-19.33-19.33
	c-13.89-13.89-36.4-13.89-50.29,0l0,0C208.55,362.7,208.55,380.01,219.22,390.68z"/>
<path class="st1" d="M278.81,381.38c0,0-26.76,5.86-30.07-7.08c-0.53-2.09-0.27-4.33,0.69-6.26c2.82-5.71,10.58-9.4,29.61-6.49"/>
<line class="st1" x1="211.23" y1="371.89" x2="248.48" y2="371.89"/>
<line class="st1" x1="221.99" y1="350.84" x2="251.78" y2="364.89"/>
<line class="st1" x1="221.99" y1="393.21" x2="251.78" y2="379.16"/>
<path class="st1" d="M266.91,531.05L266.91,531.05c18.97,5.08,38.47-6.17,43.55-25.15l2.38-8.88l4.69-17.52l-26.4-7.07
	c-18.97-5.08-38.47,6.17-43.55,25.15l0,0C243.67,512.16,252.33,527.14,266.91,531.05z"/>
<path class="st1" d="M313.86,493.2c0,0-20.24,18.46-29.58,8.9c-1.51-1.54-2.39-3.61-2.53-5.76c-0.41-6.36,4.46-13.43,22.4-20.42"/>
<line class="st1" x1="250.59" y1="518.77" x2="282.84" y2="500.15"/>
<line class="st1" x1="249.38" y1="495.17" x2="282.2" y2="492.44"/>
<line class="st1" x1="270.56" y1="531.86" x2="289.34" y2="504.8"/>
<path class="st1" d="M378.39,628.77L378.39,628.77c18.97-5.08,30.23-24.58,25.15-43.55l-2.38-8.88l-4.69-17.52l-26.4,7.07
	c-18.97,5.08-30.23,24.58-25.15,43.55l0,0C348.82,624.03,363.8,632.68,378.39,628.77z"/>
<path class="st1" d="M400.13,572.52c0,0-8.3,26.1-21.17,22.5c-2.07-0.58-3.88-1.93-5.08-3.72c-3.54-5.3-2.86-13.86,9.19-28.89"/>
<line class="st1" x1="358.12" y1="626.3" x2="376.74" y2="594.05"/>
<line class="st1" x1="345.26" y1="606.46" x2="372.33" y2="587.69"/>
<line class="st1" x1="381.96" y1="627.65" x2="384.69" y2="594.82"/>
<path class="st1" d="M523.79,657.66L523.79,657.66c13.89-13.89,13.89-36.4,0-50.29l-6.5-6.5l-12.83-12.83l-19.33,19.33
	c-13.89,13.89-13.89,36.4,0,50.29h0C495.81,668.34,513.12,668.34,523.79,657.66z"/>
<path class="st1" d="M514.49,598.08c0,0,5.86,26.76-7.08,30.07c-2.09,0.53-4.33,0.27-6.26-0.69c-5.71-2.82-9.4-10.58-6.49-29.61"/>
<line class="st1" x1="505" y1="665.66" x2="505" y2="628.41"/>
<line class="st1" x1="483.95" y1="654.9" x2="498" y2="625.11"/>
<line class="st1" x1="526.32" y1="654.9" x2="512.27" y2="625.11"/>
<path class="st1" d="M664.16,609.98L664.16,609.98c5.08-18.97-6.17-38.47-25.15-43.55l-8.88-2.38l-17.52-4.69l-7.07,26.4
	c-5.08,18.97,6.17,38.47,25.15,43.55l0,0C645.27,633.22,660.25,624.56,664.16,609.98z"/>
<path class="st1" d="M626.31,563.03c0,0,18.46,20.24,8.9,29.58c-1.54,1.51-3.61,2.39-5.76,2.53c-6.36,0.41-13.43-4.46-20.42-22.4"/>
<line class="st1" x1="651.88" y1="626.3" x2="633.26" y2="594.05"/>
<line class="st1" x1="628.28" y1="627.51" x2="625.55" y2="594.69"/>
<line class="st1" x1="664.97" y1="606.33" x2="637.91" y2="587.55"/>
<path class="st1" d="M761.88,498.5L761.88,498.5c-5.08-18.97-24.58-30.23-43.55-25.15l-8.88,2.38l-17.52,4.69l7.07,26.4
	c5.08,18.97,24.58,30.23,43.55,25.15h0C757.14,528.07,765.79,513.08,761.88,498.5z"/>
<path class="st1" d="M705.63,476.76c0,0,26.1,8.3,22.5,21.17c-0.58,2.07-1.93,3.88-3.72,5.08c-5.3,3.54-13.86,2.86-28.89-9.19"/>
<line class="st1" x1="759.41" y1="518.77" x2="727.16" y2="500.15"/>
<line class="st1" x1="739.57" y1="531.63" x2="720.8" y2="504.56"/>
<line class="st1" x1="760.76" y1="494.93" x2="727.93" y2="492.2"/>
<path class="st1" d="M790.78,353.1L790.78,353.1c-13.89-13.89-36.4-13.89-50.29,0l-6.5,6.5l-12.83,12.83l19.33,19.33
	c13.89,13.89,36.4,13.89,50.29,0l0,0C801.45,381.08,801.45,363.77,790.78,353.1z"/>
<path class="st1" d="M731.19,362.4c0,0,26.76-5.86,30.07,7.08c0.53,2.09,0.27,4.33-0.69,6.26c-2.82,5.71-10.58,9.4-29.61,6.49"/>
<line class="st1" x1="798.77" y1="371.89" x2="761.52" y2="371.89"/>
<line class="st1" x1="788.01" y1="392.94" x2="758.22" y2="378.89"/>
<line class="st1" x1="788.01" y1="350.57" x2="758.22" y2="364.62"/>
<path class="st1" d="M743.09,212.73L743.09,212.73c-18.97-5.08-38.47,6.17-43.55,25.15l-2.38,8.88l-4.69,17.52l26.4,7.07
	c18.97,5.08,38.47-6.17,43.55-25.15l0,0C766.33,231.62,757.67,216.64,743.09,212.73z"/>
<path class="st1" d="M696.14,250.58c0,0,20.24-18.46,29.58-8.9c1.51,1.54,2.39,3.61,2.53,5.76c0.41,6.36-4.46,13.43-22.4,20.42"/>
<line class="st1" x1="759.41" y1="225.01" x2="727.16" y2="243.63"/>
<line class="st1" x1="760.62" y1="248.61" x2="727.8" y2="251.34"/>
<line class="st1" x1="739.44" y1="211.92" x2="720.66" y2="238.98"/>
<path class="st1" d="M631.61,115.01L631.61,115.01c-18.97,5.08-30.23,24.58-25.15,43.55l2.38,8.88l4.69,17.52l26.4-7.07
	c18.97-5.08,30.23-24.58,25.15-43.55v0C661.18,119.75,646.2,111.1,631.61,115.01z"/>
<path class="st1" d="M609.87,171.26c0,0,8.3-26.1,21.17-22.5c2.07,0.58,3.88,1.93,5.08,3.72c3.54,5.3,2.86,13.86-9.19,28.89"/>
<line class="st1" x1="651.88" y1="117.48" x2="633.26" y2="149.73"/>
<line class="st1" x1="664.74" y1="137.32" x2="637.67" y2="156.09"/>
<line class="st1" x1="628.04" y1="116.13" x2="625.31" y2="148.96"/>
<path class="st3" d="M602.91,177.33c0,0-6.41-25.79-26.72-22.18"/>
<path class="st3" d="M635.31,175.44c0,0-6.41-25.79-26.72-22.18"/>
<path class="st3" d="M623.52,192.35c0,0,24.06-11.29,34.06,6.75"/>
<path class="st3" d="M492.51,154.45c0,0-18.45-19.13-34.23-5.85"/>
<path class="st3" d="M517.87,157.14c0,0,15.19-21.81,32.87-11.19"/>
<path class="st3" d="M385.46,189.82c0,0-25.54-7.34-32.57,12.05"/>
<path class="st3" d="M408.77,179.48c0,0,2.25-26.48,22.87-26.13"/>
<path class="st3" d="M310.44,273.98c0,0-25.79,6.41-22.18,26.72"/>
<path class="st3" d="M325.46,253.37c0,0-11.29-24.06,6.75-34.06"/>
<path class="st3" d="M287.56,384.38c0,0-19.13,18.45-5.85,34.23"/>
<path class="st3" d="M290.25,359.02c0,0-21.81-15.19-11.19-32.87"/>
<path class="st3" d="M322.93,491.43c0,0-7.34,25.54,12.05,32.57"/>
<path class="st3" d="M312.59,468.12c0,0-26.48-2.25-26.13-22.87"/>
<path class="st3" d="M407.09,566.45c0,0,6.41,25.79,26.72,22.18"/>
<path class="st3" d="M386.48,551.43c0,0-24.06,11.29-34.06-6.75"/>
<path class="st3" d="M517.49,589.33c0,0,18.45,19.13,34.23,5.85"/>
<path class="st3" d="M492.13,586.64c0,0-15.19,21.81-32.87,11.19"/>
<path class="st3" d="M624.54,553.96c0,0,25.54,7.34,32.57-12.05"/>
<path class="st3" d="M601.23,564.3c0,0-2.25,26.48-22.87,26.13"/>
<path class="st3" d="M699.56,469.8c0,0,25.79-6.41,22.18-26.72"/>
<path class="st3" d="M684.54,490.41c0,0,11.29,24.06-6.75,34.06"/>
<path class="st3" d="M722.44,359.4c0,0,19.13-18.45,5.85-34.23"/>
<path class="st3" d="M719.75,384.76c0,0,21.81,15.19,11.19,32.87"/>
<path class="st3" d="M687.07,252.35c0,0,7.34-25.54-12.05-32.57"/>
<path class="st3" d="M697.41,275.66c0,0,26.48,2.25,26.13,22.87"/>
<path class="st3" d="M602.91,177.33c0,0-6.41-25.79-26.72-22.18"/>
<path class="st3" d="M623.52,192.35c0,0,24.06-11.29,34.06,6.75"/>
<path class="st3" d="M505.92,60c0,0-65.52,38.01-41.41,69.07"/>
<path class="st3" d="M506.84,60c0,0,65.52,38.01,41.41,69.07"/>
<path class="st3" d="M350.54,101.11c0,0-37.74,65.68-1.33,80.52"/>
<path class="st3" d="M351.33,100.65c0,0,75.75,0.16,70.4,39.11"/>
<path class="st3" d="M236.53,214.4c0,0,0.16,75.75,39.11,70.4"/>
<path class="st3" d="M236.99,213.6c0,0,65.68-37.74,80.52-1.33"/>
<path class="st3" d="M194.44,369.52c0,0,38.01,65.52,69.07,41.41"/>
<path class="st3" d="M194.44,368.6c0,0,38.01-65.52,69.07-41.41"/>
<path class="st3" d="M235.54,524.9c0,0,65.68,37.74,80.52,1.33"/>
<path class="st3" d="M235.09,524.1c0,0,0.16-75.75,39.11-70.4"/>
<path class="st3" d="M348.83,638.91c0,0,75.75-0.16,70.4-39.11"/>
<path class="st3" d="M348.04,638.45c0,0-37.74-65.68-1.33-80.52"/>
<path class="st3" d="M503.95,681c0,0,65.52-38.01,41.41-69.07"/>
<path class="st3" d="M503.04,681c0,0-65.52-38.01-41.41-69.07"/>
<path class="st3" d="M659.34,639.89c0,0,37.74-65.68,1.33-80.52"/>
<path class="st3" d="M658.54,640.35c0,0-75.75-0.16-70.4-39.11"/>
<path class="st3" d="M773.35,526.6c0,0-0.16-75.75-39.11-70.4"/>
<path class="st3" d="M772.89,527.4c0,0-65.68,37.74-80.52,1.33"/>
<path class="st3" d="M815.44,371.48c0,0-38.01-65.52-69.07-41.41"/>
<path class="st3" d="M815.44,372.4c0,0-38.01,65.52-69.07,41.41"/>
<path class="st3" d="M774.33,216.1c0,0-65.68-37.74-80.52-1.33"/>
<path class="st3" d="M774.79,216.9c0,0-0.16,75.75-39.11,70.4"/>
<path class="st3" d="M661.04,102.09c0,0-75.75,0.16-70.4,39.11"/>
<path class="st3" d="M661.83,102.55c0,0,37.74,65.68,1.33,80.52"/>
<path class="st3" d="M505,31.13c0,0-22.38,8.25-19.75,26.63c0,0-29.93-6.75-26.97,25.13c0,0-30.84-1.76-14.88,63.06"/>
<path class="st3" d="M505.3,31.47c0,0,22.38,8.25,19.75,26.63c0,0,29.93-6.75,26.97,25.13c0,0,30.84-1.76,14.88,63.06"/>
<path class="st3" d="M334.62,76.78c0,0-15.25,18.33-3.79,32.93c0,0-29.3,9.12-10.79,35.24c0,0-27.59,13.9,18.65,62.05"/>
<path class="st3" d="M335.05,76.93c0,0,23.5-4.04,30.42,13.18c0,0,22.55-20.81,35.92,8.28c0,0,25.83-16.94,44.41,47.17"/>
<path class="st3" d="M209.89,201.51c0,0-4.04,23.5,13.18,30.42c0,0-20.81,22.55,8.28,35.92c0,0-16.94,25.83,47.17,44.41"/>
<path class="st3" d="M210.34,201.42c0,0,18.33-15.25,32.93-3.79c0,0,9.12-29.3,35.24-10.79c0,0,13.9-27.59,62.05,18.65"/>
<path class="st3" d="M164.24,371.89c0,0,8.25,22.38,26.63,19.75c0,0-6.75,29.93,25.13,26.97c0,0-1.76,30.84,63.06,14.88"/>
<path class="st3" d="M164.58,371.59c0,0,8.25-22.38,26.63-19.75c0,0-6.75-29.93,25.13-26.97c0,0-1.76-30.84,63.06-14.88"/>
<path class="st3" d="M209.89,542.27c0,0,18.33,15.25,32.93,3.79c0,0,9.12,29.3,35.24,10.79c0,0,13.9,27.59,62.05-18.65"/>
<path class="st3" d="M210.04,541.84c0,0-4.04-23.5,13.18-30.42c0,0-20.81-22.55,8.28-35.92c0,0-16.94-25.83,47.17-44.41"/>
<path class="st3" d="M334.62,667c0,0,23.5,4.04,30.42-13.18c0,0,22.55,20.81,35.92-8.28c0,0,25.83,16.94,44.41-47.17"/>
<path class="st3" d="M334.53,666.55c0,0-15.25-18.33-3.79-32.93c0,0-29.3-9.12-10.79-35.24c0,0-27.59-13.9,18.65-62.05"/>
<path class="st3" d="M505,712.65c0,0,22.38-8.25,19.75-26.63c0,0,29.93,6.75,26.97-25.13c0,0,30.84,1.76,14.88-63.06"/>
<path class="st3" d="M504.7,712.31c0,0-22.38-8.25-19.75-26.63c0,0-29.93,6.75-26.97-25.13c0,0-30.84,1.76-14.88-63.06"/>
<path class="st3" d="M675.38,667c0,0,15.25-18.33,3.79-32.93c0,0,29.3-9.12,10.79-35.24c0,0,27.59-13.9-18.65-62.05"/>
<path class="st3" d="M674.95,666.85c0,0-23.5,4.04-30.42-13.18c0,0-22.55,20.81-35.92-8.28c0,0-25.83,16.94-44.41-47.17"/>
<path class="st3" d="M800.11,542.27c0,0,4.04-23.5-13.18-30.42c0,0,20.81-22.55-8.28-35.92c0,0,16.94-25.83-47.17-44.41"/>
<path class="st3" d="M799.66,542.36c0,0-18.33,15.25-32.93,3.79c0,0-9.12,29.3-35.24,10.79c0,0-13.9,27.59-62.05-18.65"/>
<path class="st3" d="M845.76,371.89c0,0-8.25-22.38-26.63-19.75c0,0,6.75-29.93-25.13-26.97c0,0,1.76-30.84-63.06-14.88"/>
<path class="st3" d="M845.42,372.19c0,0-8.25,22.38-26.63,19.75c0,0,6.75,29.93-25.13,26.97c0,0,1.76,30.84-63.06,14.88"/>
<path class="st3" d="M800.11,201.51c0,0-18.33-15.25-32.93-3.79c0,0-9.12-29.3-35.24-10.79c0,0-13.9-27.59-62.05,18.65"/>
<path class="st3" d="M799.96,201.94c0,0,4.04,23.5-13.18,30.42c0,0,20.81,22.55-8.28,35.92c0,0,16.94,25.83-47.17,44.41"/>
<path class="st3" d="M675.38,76.78c0,0-23.5-4.04-30.42,13.18c0,0-22.55-20.81-35.92,8.28c0,0-25.83-16.94-44.41,47.17"/>
<path class="st3" d="M675.47,77.23c0,0,15.25,18.33,3.79,32.93c0,0,29.3,9.12,10.79,35.24c0,0,27.59,13.9-18.65,62.05"/>
<path class="st3" d="M397.81,92.04c0,0,13.08-46.1,58.13-17.13"/>
<path class="st3" d="M385.46,83.18c0,0,24.71-57.19,78.14-20.64"/>
<path class="st3" d="M375.15,83.18c0,0,19.86-75.21,96.76-27.11"/>
<path class="st3" d="M272.25,183.13c0,0-11.72-46.47,41.78-43.9"/>
<path class="st3" d="M257.12,181.63c0,0-7.19-61.89,57.35-56.94"/>
<path class="st3" d="M248.19,186.78c0,0-20.41-75.06,70.24-71.86"/>
<path class="st3" d="M209.05,324.79c0,0-33.39-34.38,14.23-58.91"/>
<path class="st3" d="M195.2,331.06c0,0-37.17-50,21.2-77.99"/>
<path class="st3" d="M190.04,339.99c0,0-55.2-54.8,24.9-97.35"/>
<path class="st3" d="M225.15,479.08c0,0-46.1-13.08-17.13-58.13"/>
<path class="st3" d="M216.29,491.43c0,0-57.19-24.71-20.64-78.14"/>
<path class="st3" d="M216.29,501.74c0,0-75.21-19.86-27.11-96.76"/>
<path class="st3" d="M316.24,604.64c0,0-46.47,11.72-43.9-41.78"/>
<path class="st3" d="M314.74,619.77c0,0-61.89,7.19-56.94-57.35"/>
<path class="st3" d="M319.89,628.7c0,0-75.06,20.41-71.86-70.24"/>
<path class="st3" d="M457.9,667.84c0,0-34.38,33.39-58.91-14.23"/>
<path class="st3" d="M464.17,681.69c0,0-50,37.17-77.99-21.2"/>
<path class="st3" d="M473.1,686.85c0,0-54.8,55.2-97.35-24.9"/>
<path class="st3" d="M612.19,651.74c0,0-13.08,46.1-58.13,17.13"/>
<path class="st3" d="M624.54,660.6c0,0-24.71,57.19-78.14,20.64"/>
<path class="st3" d="M634.85,660.6c0,0-19.86,75.21-96.76,27.11"/>
<path class="st3" d="M737.75,560.65c0,0,11.72,46.46-41.78,43.9"/>
<path class="st3" d="M752.88,562.15c0,0,7.19,61.89-57.35,56.94"/>
<path class="st3" d="M761.81,557c0,0,20.41,75.06-70.24,71.86"/>
<path class="st3" d="M800.95,418.99c0,0,33.39,34.38-14.23,58.91"/>
<path class="st3" d="M814.8,412.72c0,0,37.17,50-21.2,77.99"/>
<path class="st3" d="M819.96,403.79c0,0,55.2,54.8-24.9,97.35"/>
<path class="st3" d="M784.85,264.7c0,0,46.1,13.08,17.13,58.13"/>
<path class="st3" d="M793.71,252.35c0,0,57.19,24.71,20.64,78.14"/>
<path class="st3" d="M793.71,242.04c0,0,75.21,19.86,27.11,96.76"/>
<path class="st3" d="M693.76,139.14c0,0,46.47-11.72,43.9,41.78"/>
<path class="st3" d="M695.26,124.01c0,0,61.89-7.19,56.94,57.35"/>
<path class="st3" d="M690.11,115.08c0,0,75.06-20.41,71.86,70.24"/>
<path class="st3" d="M552.1,75.94c0,0,34.38-33.39,58.91,14.23"/>
<path class="st3" d="M545.83,62.09c0,0,50-37.17,77.99,21.2"/>
<path class="st3" d="M536.9,56.93c0,0,54.8-55.2,97.35,24.9"/>
</svg>
